<?xml version="1.0" encoding="utf-8"?>
<!-- Generator: Adobe Illustrator 23.0.4, SVG Export Plug-In . SVG Version: 6.00 Build 0)  -->
<svg version="1.1" id="Layer_1" xmlns="http://www.w3.org/2000/svg" xmlns:xlink="http://www.w3.org/1999/xlink" x="0px" y="0px"
	 viewBox="0 0 360 50" style="enable-background:new 0 0 360 50;" xml:space="preserve">
<style type="text/css">
	.st0{display:none;fill:#000005;}
	.st1{fill:#237BBD;stroke:#237BBD;stroke-width:0.96;stroke-miterlimit:10;}
	.st2{fill:#D62021;}
</style>
<g transform="translate(-1.93 -1.93)">
	<path class="st0" d="M138.6,56.9v4.4h7.6v2h-7.6v6.4h-2.2V55h10.1v2L138.6,56.9z"/>
	<path class="st0" d="M161.1,61.6c-0.4,0.8-1.1,1.3-2,1.4l3.4,6.7h-2.4l-3-6.3h-4.6v6.3h-2.1V55h7.1c1.9,0,3,0.7,3.5,1.7
		c0.4,0.8,0.6,1.6,0.5,2.5C161.6,60,161.5,60.9,161.1,61.6L161.1,61.6z M159.2,57.9c-0.3-0.6-1-1-2.1-1h-4.6v4.7h4.9
		c0.7,0.1,1.3-0.2,1.7-0.8c0.2-0.5,0.2-0.9,0.2-1.4C159.4,58.9,159.3,58.4,159.2,57.9L159.2,57.9z"/>
	<path class="st0" d="M176.9,56.8c1,1.1,1.4,2.9,1.4,5.4c0,2.5-0.5,4.4-1.6,5.6s-2.7,2-5.1,2s-4-0.7-5-2c-1-1.3-1.6-3.1-1.6-5.6
		c0-2.5,0.4-4.2,1.4-5.4c1.1-1.3,2.7-2.2,5.2-2.2S175.9,55.5,176.9,56.8z M174.9,66.8c0.9-0.9,1.3-2.5,1.3-4.6
		c0-2.1-0.4-3.6-1.1-4.4c-0.9-0.9-2.1-1.3-3.3-1.2c-1.2-0.1-2.4,0.3-3.2,1.2c-0.8,0.8-1.1,2.4-1.1,4.4c0,2,0.4,3.7,1.4,4.6
		c0.8,0.7,1.9,1.1,3,1C172.9,68,174,67.6,174.9,66.8L174.9,66.8z"/>
	<path class="st0" d="M194.6,69.7V58.4l-4.1,11.4h-2.2l-4-11.4v11.4h-2V55h3l4.2,12l4.3-12h2.9v14.8L194.6,69.7L194.6,69.7z"/>
	<path class="st0" d="M217,69.7l-6.9-11.5v11.5h-2V55h2.6l6.7,11.3V55h2.1v14.8L217,69.7L217,69.7z"/>
	<path class="st0" d="M234.8,62.9c-0.7,1-1.9,1.4-3.7,1.4c-0.3,0-4.8,0-4.8,0v5.3h-2.1V55h7c1.9,0,2.9,0.5,3.5,1.5s0.9,2.1,0.8,3.3
		C235.5,60.8,235.3,62,234.8,62.9z M232.9,57.9c-0.5-0.7-1.3-1.1-2.2-1h-4.5v5.5h4.4c1.4,0,2-0.4,2.3-0.9s0.4-1.2,0.3-1.8
		C233.3,59.1,233.2,58.5,232.9,57.9L232.9,57.9z"/>
	<path class="st0" d="M250,61.6c-0.4,0.7-1.1,1.3-1.9,1.4l3.4,6.7h-2.4l-3.1-6.3h-4.6v6.3h-2.1V55h7.2c1.9,0,2.9,0.7,3.5,1.7
		c0.4,0.8,0.6,1.6,0.5,2.5C250.6,60,250.4,60.9,250,61.6L250,61.6z M248.1,57.9c-0.3-0.6-1-1-2.1-1h-4.5v4.7h4.9
		c0.7,0.1,1.3-0.2,1.7-0.8c0.2-0.5,0.2-0.9,0.2-1.4C248.3,58.9,248.2,58.4,248.1,57.9L248.1,57.9z"/>
	<path class="st0" d="M272.4,62.9c-0.7,1-1.9,1.4-3.7,1.4c-0.3,0-4.8,0-4.8,0v5.3h-2.2V55h7.1c1.9,0,2.9,0.5,3.5,1.5
		s0.9,2.1,0.8,3.3C273.2,60.8,272.9,62,272.4,62.9L272.4,62.9z M270.6,57.9c-0.5-0.7-1.3-1.1-2.2-1h-4.5v5.5h4.4
		c1.4,0,2-0.4,2.3-0.9s0.4-1.2,0.3-1.8C270.9,59.1,270.9,58.5,270.6,57.9L270.6,57.9z"/>
	<path class="st0" d="M287.9,56.8c1,1.1,1.4,2.9,1.4,5.4c0,2.5-0.5,4.4-1.6,5.6s-2.7,2-5.1,2s-4-0.7-5-2c-1-1.3-1.6-3.1-1.6-5.6
		c0-2.5,0.5-4.2,1.5-5.4c1-1.3,2.7-2.2,5.1-2.2S286.9,55.5,287.9,56.8z M285.9,66.8c0.9-0.9,1.3-2.5,1.3-4.6c0-2.1-0.4-3.6-1.1-4.4
		c-0.9-0.9-2.1-1.3-3.3-1.2c-1.2-0.1-2.4,0.3-3.2,1.2c-0.7,0.8-1.1,2.4-1.1,4.4c0,2,0.5,3.7,1.4,4.6c0.8,0.7,1.9,1.1,3,1
		C283.9,68,285,67.6,285.9,66.8L285.9,66.8z"/>
	<path class="st0" d="M293.2,69.7V55h2.2v12.8h7.6v2L293.2,69.7z"/>
	<path class="st0" d="M306.4,69.7V55h2.2v14.8L306.4,69.7L306.4,69.7z"/>
	<path class="st0" d="M318.9,56.9v12.8h-2.2V56.9h-4.9v-2h12v2H318.9z"/>
	<path class="st0" d="M327,69.7V55h2.2v14.8L327,69.7L327,69.7z"/>
	<path class="st0" d="M339.9,69.9c-4.2,0-6.8-1.9-6.8-7.6c0-5.1,2-7.5,6.7-7.5c4.9,0,6.1,2.8,6.3,5.6h-2.2c-0.2-2.3-1.2-3.5-4.1-3.5
		c-3.1,0-4.4,1.7-4.4,5.5c0,4.7,2.1,5.7,4.5,5.7c2.8,0,3.9-1.6,4.1-3.5h2.2C345.9,67.4,344.1,69.9,339.9,69.9L339.9,69.9z"/>
	<path class="st0" d="M355,69.9c-3.7,0-5.5-1.2-6.1-3.1c-0.1-0.5-0.2-1-0.2-1.5h2.2c0,0.4,0.1,0.7,0.2,1c0.5,1.2,1.8,1.7,3.9,1.7
		c2.6,0,3.5-0.9,3.5-2.2c0-1.5-1-2.1-3.3-2.6c-0.5-0.1-1.4-0.3-2.2-0.4c-2.9-0.6-4.3-1.7-4.3-4.1s1.7-4,5.7-4c3.4,0,5.1,1.2,5.8,3
		c0.1,0.4,0.2,0.9,0.2,1.3h-2.2c0-0.3,0-0.6-0.1-0.8c-0.5-1.1-1.4-1.7-3.7-1.7c-2.6,0-3.4,0.8-3.4,2s0.8,1.9,3.3,2.4l2.1,0.4
		c2.7,0.5,4.3,1.7,4.3,4.1C360.9,68.2,358.9,69.9,355,69.9z"/>
	<path class="st1" d="M10.5,22.3h12.2v4.4H3.5v-3.8c0-7.1,11.6-5.9,12.1-8.9c0.3-1.7-1-2.2-2.5-2.2c-1.8,0-2.7,0.5-2.7,2.9H3.6
		c0-4.3,2.4-7.2,9.6-7.2c7.4,0,9.9,3,9.6,6.4c-0.5,5.5-12.2,5.7-12.2,7.9L10.5,22.3z"/>
	<path class="st1" d="M35.1,27.1c-8.9,0-10.5-4.6-10.5-9.7s1.8-9.8,10.5-9.8s10.7,4.6,10.7,9.8S44,27,35.1,27.1z M35.1,12.2
		c-3.3,0-3.2,2.1-3.2,5.1s-0.1,5.2,3.2,5.2s3.3-2.1,3.3-5.2S38.6,12.2,35.1,12.2z"/>
	<path class="st1" d="M10.5,41.7h12.2v4.4H3.5v-3.8c0-7.1,11.6-5.9,12.1-8.9c0.3-1.6-0.9-2.2-2.5-2.2c-1.8,0-2.7,0.5-2.7,2.9H3.6
		c0-4.3,2.4-7.2,9.6-7.2c7.4,0,9.9,3,9.6,6.4c-0.5,5.6-12.3,5.7-12.3,7.9V41.7z"/>
	<path class="st1" d="M35.1,46.4c-8.9,0-10.5-4.6-10.5-9.7S26.3,27,35.1,27s10.6,4.6,10.6,9.8S44,46.4,35.1,46.4z M35.1,31.5
		c-3.3,0-3.2,2.1-3.2,5.2s-0.1,5.2,3.2,5.2s3.3-2.1,3.3-5.1C38.4,33.8,38.6,31.5,35.1,31.5z"/>
	<path class="st2" d="M93.4,46.1V7.8h13.1l-0.1,28.5h15.8v9.8H93.4z"/>
	<path class="st2" d="M192.1,46.7c-17.2,0-20.4-10.2-20.4-19.8s3.2-19.7,20.4-19.7c14.9,0,20,7.7,20,16.7h-13
		c-0.7-5.6-2.6-7.4-7-7.4c-6.4,0-7.2,4.8-7.2,10.5s0.5,10.5,7.2,10.5c4.4,0,6.2-1.9,7-7.6h13C212.1,39.3,207.1,46.7,192.1,46.7z"/>
	<path class="st2" d="M237.1,17v29.2h-12.9V17h-10.2V7.8h33.3v9.1L237.1,17z"/>
	<path class="st2" d="M252.3,46.1V7.8h13v38.3C265.4,46.1,252.3,46.1,252.3,46.1z"/>
	<path class="st2" d="M292.6,46.7c-17.6,0-21-10.1-21-19.8s3.4-19.7,21-19.7s21,10.1,21,19.8S310.2,46.7,292.6,46.7z M292.6,16.5
		c-7.4,0-7.8,4.8-7.8,10.5s0.5,10.5,7.8,10.5s7.9-4.9,7.9-10.5S300,16.5,292.6,16.5z"/>
	<path class="st2" d="M345.1,46.1L332,25.4v20.7h-13.1V7.8h14.9L346.6,29V7.8h13.1v38.3C359.8,46.1,345.1,46.1,345.1,46.1z"/>
</g>
<path class="st2" d="M164.5,15.7v-10h-39.2v0.2h-0.7v38.3h0.7l0,0h39.2v-10H136v-4.3h21.9v-10H136v-4.1L164.5,15.7z"/>
<path class="st2" d="M47.3,34.1h39.2v10H47.3V34.1z"/>
<path class="st2" d="M47.3,5.7h39.2v10H47.3V5.7z"/>
<path class="st2" d="M47.3,19.8h39.2v10H47.3V19.8z"/>
</svg>
